<mxfile host="app.diagrams.net" agent="Mozilla/5.0 (Macintosh; Intel Mac OS X 10_15_7) AppleWebKit/537.36 (KHTML, like Gecko) Chrome/129.0.0.0 Safari/537.36" version="24.7.17">
  <diagram name="Page-1" id="Fo46UW_Xf3uCBvevrTA-">
    <mxGraphModel grid="1" page="1" gridSize="10" guides="1" tooltips="1" connect="1" arrows="1" fold="1" pageScale="1" pageWidth="850" pageHeight="1100" math="0" shadow="0">
      <root>
        <mxCell id="0" />
        <mxCell id="1" parent="0" />
        <mxCell id="AsIQZ49urG--46RWY30z-1" value="" style="whiteSpace=wrap;html=1;aspect=fixed;" vertex="1" parent="1">
          <mxGeometry x="210" y="100" width="410" height="410" as="geometry" />
        </mxCell>
        <mxCell id="AsIQZ49urG--46RWY30z-2" value="Logical Gate Logo" style="rounded=0;whiteSpace=wrap;html=1;" vertex="1" parent="1">
          <mxGeometry x="285" y="130" width="250" height="80" as="geometry" />
        </mxCell>
        <mxCell id="AsIQZ49urG--46RWY30z-3" value="Quit" style="rounded=1;whiteSpace=wrap;html=1;" vertex="1" parent="1">
          <mxGeometry x="350" y="380" width="120" height="60" as="geometry" />
        </mxCell>
        <mxCell id="AsIQZ49urG--46RWY30z-4" value="Play Game" style="rounded=1;whiteSpace=wrap;html=1;" vertex="1" parent="1">
          <mxGeometry x="350" y="240" width="120" height="60" as="geometry" />
        </mxCell>
        <mxCell id="AsIQZ49urG--46RWY30z-5" value="" style="rounded=1;whiteSpace=wrap;html=1;" vertex="1" parent="1">
          <mxGeometry x="350" y="450" width="50" height="30" as="geometry" />
        </mxCell>
        <mxCell id="AsIQZ49urG--46RWY30z-6" value="" style="rounded=1;whiteSpace=wrap;html=1;" vertex="1" parent="1">
          <mxGeometry x="420" y="450" width="50" height="30" as="geometry" />
        </mxCell>
        <mxCell id="AsIQZ49urG--46RWY30z-8" value="" style="shape=image;verticalLabelPosition=bottom;labelBackgroundColor=default;verticalAlign=top;aspect=fixed;imageAspect=0;image=data:image/png,iVBORw0KGgoAAAANSUhEUgAAAOEAAADhCAYAAAA+s9J6AAAAAXNSR0IArs4c6QAAAARnQU1BAACxjwv8YQUAAAAJcEhZcwAADsMAAA7DAcdvqGQAAAAZdEVYdFNvZnR3YXJlAHBhaW50Lm5ldCA0LjAuMTczbp9jAAAOW0lEQVR4Xu2dv4/b2BWFXQbQ1kHKNAa2StogZZqkS5P/Mn/GAqmCtEHgBaZIseudGRgG3AxSTN6RybFGcyTxx733vfveOcBHydc2NdTw432kSOrd8/OzEKIitCiEiIMWhRBx0KIQIg5aFELEQYtCiDhoUQgRBy0KIeKgRdEEh8L7E/Bn9u9EcmgxiF+R2ugcxfvxxx+fP336VJ5+y/39PR4kY4fQYgB/K/y38P1JbWSO8p2Lx/L4+IgHydgRtOgMBPxfAfmpMLqIkOl3hbWBiGx+Ihm06MipgHNGFfHY/abOtjoPDw94UDfsAFp0ggk4Z0QR0cn2Rt2wA2jRgWsCzhlJxMOXL1/Kw75M+5DqhsmhRWOWCDhnBBEP01DSKuqGyaFFQ9YIOKdnEbcehLkWSZgcWjRii4BzehTRQ0BEEiaHFg3YI+CcnkT0EhCRhMmhxZ1YCDinBxE9BXzG2TUl7HVFEmhxB5YCzsksoquAiCTMDy1uxEPAORlFdBcQkYT5ocUNeAo4J5uI2FdzjyTMDy2uJELAOVlEPCw5GdsikjA/tLiCSAHntC7i4ePHj+UhJpIwP7S4kBoCzmlVxJD9wNNIwvzQ4gJqCjinNRHDBUQ6lBDvI/anL4G/Z/8vLbR4gxYEnNOKiFUERDqT8Ob72OMdBmjxCi0JOKe2iNUERDqS8LDm2sqeZKTFC7Qo4JxaIlYVEOlEwj2XduH9Ty0jLRJaFnBODRHxy6+aDiS02pBhHilFpMUz/lJoXcA5kSKaXJi7Nx1IaLYhm34f6boiLZ7xXeGHQpZEiGh9Ye7mSEKaVENUWiRIxG+Efhh/K8kl9D6zKMUQlRYvIBG//kIt9l/MklzCiH3q5kWkxSuMLGJzAiKS8HZa31ekxRuMKGKTAiKScFWa7Iq0uICRRGxWQCT7PmGF/evmRKTFhYwgYtMCIsklBNHdcL5fazPDU1pcQe8ihq8ga9OBhGHXXpI00RVpcSW9itjEh/G30oGEoObGrrqItLiB3kQ8TCcIN59OJKw97K8qIi1upBcRa68Qq9KJhGBYEWlxB9lFTCUg0pGEAO8/hqa1fgdVRKTFnWQVMZ2ASGcSztSUMVxEWjQgm4g/F/769WmudCrhzFHG3j9LpEUjsomYMp1LOFNjlBImIi0aIhGdM4iE4NgVC5EyhohIi8ZIRMcMJOFMdFd0F5EWHZCIThlQQnDsioH7iq4i0qITEtEhg0o4E9kV3USkRUckonEGlxCkF5EWnZGIhpGERyDG+zX3Ld0RHBxiP8NmaDEAiWgUSfgK96447YeadkNaDEIiGkQSviFieGo6LKXFQCTizkhCSioRaTEYibgjkvAiESKa7B/SYgUk4sZIwqu4imi1f0iLlZCIGyIJb+LdEXcPS2mxIhJxZRqRECshhmZgd2dwwFvEXcNSWqyMRFyRihK+iHd6+hhu2jT9TK0J6SbidCuUzctKiw0gERemkoSLVugG73ztJmLJ5mEpLTaCRFyQChJuWZHx71uR0fOGw5uGpbTYEBLxRoIl3NtJNncLY7xuZ7lp+WixMSTilQRLiC393rQiosWysKzuhrTYIBLxQgIlPFidIN3Ibej3dnWa6T1atVy02CgSkSRQQo/OUbsruohYsmq5aLFhJOJZkkuIVBfR6bswFg9LafEEvDmYWUv8vvDPglLSgYRIbRE9lm3xMrHiUTz8cjN8Icro6URCpKaIeF28vnXwnrHXe8XpH47ySbxc6UhClwtmV+AxLF20YZmfeG0JFOf0JOGUmh3RYxlvdkNMJGDiBEoYuZ7UEtFjGRdJGLWFUxwSKCGIXFdqiWi6jNPu3dXlwEQSJk6whJHdEKkhYng3fBd0mzjFKcESgiFEtDxAeeuAEyZK4lSQEESLeLWTOGE9Qry4DJgoiVNJQgARsWK5y7hkv8oB6ystLnZ0TJTEqSjhTFRXrDEsDemGmCiJ04CE4NgVHx4eyoNrokW07oaSsMc0IuFMRFe8uG/lhFk3vHSABhMlcRqTEHiLGN0N3YekmCiJ06CEoCcRrZdFEvaWRiUE3iJGDktdh6SYKInTsITAU8TQbjjdW9QqrzYgmCiJ07iEwFPElN2wRBL2lAQSAi8RI7uhJFR4kkgIvG66G9UNzTYk52cAYaIkTiIJgWU3mZO+G2KiJE4yCb2GpVHdUBIqb5NMQuAhYpSElkPqlw6OGSuJc3d3h4fzlaV1LDtK9FUW5t0QM1US5+npCQ+/KZyvLC2TuRtKQoXm34V0IhrfYjDqAI0kVC4mo4iWKzRyXKmdsezikrDDZBPxYHwNYoSEwGrjIQk7TTYRrVZoJJWE03D8gBkq/SWTiGb7hoFHSU03HJih0mcyiZitG1oeVJKEnSeLiNkkBFY/syQcIBlEtDwTRRIqTSaDiCYr9Xywo8BewxJJqKxO6yJardRIRDeUhMqmtCyi5T0+00iIE/AxM2WstCyiWXcpsPlbYvKz4guZMDNlvLQqYiYJzTo3ZqaMmRZFzCThuw8fPpSH/cHMlHHTmogmEkZd6Dy9zu5gZsrYaUlEEwmnDsXmb4okVCzTiogmEmb7rBAzUhSkBRFNz8kssNewRBIq5qkuotUQr0QSKmlTVUSrI44lklBJnWoiqhMqyrdUEVESKsrrRItochZKtivsMSNFuZZIEU1Wan1OqPSYKBFNJJzkYPM3RRIq0YkQ0UTCEsyHzd8UnTuq1Ii3iJkk1FUUSrV4iphJQpOfVdcTKlvjIaKurFeUlbEW0aoLImkkLNE9ZpRdsRTRZKXW3daUEWMhou47qig7s1dEqxUakYTKsNkjYjYJ9V0USrPZIqL1N/ZGSGi60cAMFcUya0W0XKFTfWX2fBAJM1QU6ywVUd/UW+aHGSqKR5aIaNkFkQgJ0Wn1nfVKmlwT0XpfMNVQdIokVELCRLTsJnMiuiCQhErKnItouSJHXkkPJKGSNrOImbug5Zk9L8NnzFhJnKenp+lZivyn8KevT00TJaF5FwSYKIlzd3eHB3SZURN1QAZIQuVtpvucYJg3qohRXdBsGH2+D4uJkjgnNzUaUcT0XRBgoiTO2Z3FRhMxqgsCSajwnEkIRhExsgse7u/vy4NZJGFPIRKCEURM2QWnjzhebTwwURLngoSgZxFDu2DB5IDMlDcbD0yUxLkiIehRxEgBgVkXnCIJe8sNCUFvIkYOQ4HrUBRgoiTOAglBLyJGd0HLe6EidAOCiZI4CyUE2UWMFhC4D0UBJkrirJAQpBQx+CqJGesueHEjgomSOCslBBlF/GOBLYsnIV0QvMMXUih5s0FCkE1EXH2Bn5ktiwemXfDSAZkZTKyNVwKzUUKQTUT8rBEiQhbLzwWRi10QYCIJE2eHhCCbiD8UviuwZbHC1Icl+7OYeJivBGWnhEAifiO8C4L5iURMGgMJgUT8iseocLGEACK+Nz4sqzjHSEIwuojWt2BELn4scQorHmXEL1dCth9DCcGoInqNBG92QUCLJxyFbBQNn0uMJQQjioj1yTqLuiCgxSRY3n4ubRwkBCOJ6DEMRSA2e7030GIiDqOfbOAkIRhBRK9h6OIuCGgxGR5DiTRxlBD0LKKLgFNTWCwgoMVkeG3NUsRZQtCriF4b78XD0BlaTMiwIgZICHoT0foKiTmrhqEztJiUIUUMkhBARJxInSWXRPQ8oLe6CwJaTMxwIgZKCLKL6Ll+bOqCgBaTM5SIwRKCrENTt/ViuifpJgEBLXbAMCJWkBBkE/EfhT98feqSTcPQGVrsBOu7JjeZShKCbCJ6ZfMwdIYWO8LrbIhmUlFCMLSIt66YXwotdkbXH+ZXlhCMLOKuYegMLXZG1/uHDUgIRhRx9zB0hhY7pFsRG5EQjCSimYCAFjulSxEbkhB0L6LVfuAptNgx3YnYmISgdxFN9gNPocXO6UrEBiUEvYpoOgydocUB6EbERiUEvYnoIiCgxUE4PDw8lIfcaVhC0IuIbgICWhwIr0tawtK4hCC7iK4CAlocjNQf5ieQEGQV0V1AQIuDkXr/MImEIJuI/yr8usCWxRRaHJC0IiaSEGQTcemtMnZBi4OSUsRkEgKJeAYtDkw6ERNKCCTiCbQ4OKlETCoh+G3hp0KWuIlIiyLP3b0TSwi+LwwvIi2KIykuCE4uIYCIvxSyxFxEWhQvNP8ZYgcSHj5//lweUsVURFoULzS/f9iBhFlPljATkRbFK5oWMbuE08+fNSYi0qJ4Q7MiJpcw/bm7JbtFpEVBaVLE5BKmPm/3JLtEpEVxkeZElITNZLOItCiu0pSI2Yejnd0XdpOItChu0szdvZNLCHrqhshqEWlRLKKJrbgkbDKrRKRFsZjqK1AHEjb9EdCOLBaRFsViqq9AHUgIeuyGyCIRaVGsoqqInUiI9/B9p9+idVNEWhSrqSZiJxLO3Hwfpzvk/bnwM54kyVURaVFsooqInUkIjl3xCvh7/LtMl0FJwkDCRexQwjVkEFHD0QqEXhA8uISgZRF1YKYih8fHx/LgH0l4pEURFwkIaFGYgP0X90jCF1oScbGAgBaFCSH7h5LwFS2IuEpAQIvCjAgR0XHZa49KTRFXCwhoUZjiLaIkfEsNETcJCGhRmOMpoiTkRIq4WUBAi8IFLxEl4WUiRNwlIKBF4YaHiJLwOp4i7hYQ0KJwxeyC4OkmSRCbvY74hoeIJgICWhTuWF0QrC64HEsRzQQEtChCsLjdnyRch4WIpgICWhRh7Dm9DfuWGoquZ4+I5gICWhShbDlYIwH3sUVEFwEBLYpwINT7hcNTCWjDGhHdBAS0KKpxlJFdCjXVsA8oAe1YIqKrgIAWRXWOMp4h+Xy4JqK7gIAWhRgMJmKIgIAWhRiQUxHDBAS0KMSgQMS/F8IEBLQohIiDFoUQcdCiECIOWhRCxEGLQogont/9Hx4kKbJ4BN2sAAAAAElFTkSuQmCC;" vertex="1" parent="1">
          <mxGeometry x="365" y="455" width="20" height="20" as="geometry" />
        </mxCell>
        <mxCell id="AsIQZ49urG--46RWY30z-9" value="" style="shape=image;verticalLabelPosition=bottom;labelBackgroundColor=default;verticalAlign=top;aspect=fixed;imageAspect=0;image=data:image/png,iVBORw0KGgoAAAANSUhEUgAAAOEAAADhCAYAAAA+s9J6AAAAAXNSR0IArs4c6QAAAARnQU1BAACxjwv8YQUAAAAJcEhZcwAADsMAAA7DAcdvqGQAAAAZdEVYdFNvZnR3YXJlAHBhaW50Lm5ldCA0LjAuMTczbp9jAAANF0lEQVR4Xu2dS3LbSBBEtec5tJ3738W+gENyeOO9BgkDEikmPwCqqruqMyMe5KmxQeHzUA2QAF8+Pj6EEA2hRSFEHLQohIiDFoUQcdCiECIOWhRCxEGLQog4aFEIEQctii44Tbyegf9mf08khxZFM2bxfv78+fHnz5/pj195e3vDD8lYEFoU4czyfReP5ffv3/ghGQtBiyIUyPTfxNZARDY/kQxaFCHM3W/pbJvz/v6OH+qGBaBFEQI62dGoGxaAFoU7p79//04/jmU5h1Q3TA4tCldOy1DSKuqGyaFF4cbeizD3IgmTQ4vCBQ8BEUmYHFoU5ngJiEjC5NCiMMVTwA98umYKe12RBFoUZrgKiEjC/NCiMMFdQEQS5ocWhQk4V3OPJMwPLYrDnJ75MLZFJGF+aFEc4vTr16/pR0wkYX5oUewm5DzwPJIwP7QodhEuIFJQQqxHnE/fAv+f/bu00KLYTBMBkWISPlyPFZ8wQItiE80ERApJeNpyb2UlGWlRPE1TAZEiEh65tQvrP7WMtCieBhu/aQpIaHUgwzxSikiL4ilMbsw9mgISmh3Ilu2RrivSoniI9Y25uyMJaVINUWlR3CX0zfhHSS6h9yeLUgxRaVHcxOr8xSzJJYw4p+5eRFoUlO4ERCTh4/R+rkiL4oouBUQk4aZ02RVpUVzQrYBI9nPCBufX3YlIi+KTrgVEkksIorvh+rzWboantCg+Cd9BtqaAhGH3XpJ00RVpUcx08Wb8oxSQELQ82DUXkRbFx2n5gHD3KSJh62F/UxFpcXBa7xCbUkRCMKyItDgwqQRECkkIsP4xNG21DZqISIuDkk5ApJiEKy1lDBeRFgckpYBIUQlXZhmrv5dIi4ORVkCkuIQrLbZRmIi0OBCpBUQGkRBgW0UPUUNEpMWB6P7N+EcZSMKV6AOnu4i0OAibHizUawaUEMxdMfBc0VVEWhyArm7MPZJBJVyJ7IpuItJicSI3nHsGlxCkF5EWC1NKQEQSzmC7vgadXuA6AvsddkOLRSknICIJL3DfxstpjGk3pMWClBQQkYRXRGxrzN9MRFosRlkBEUlISSUiLRYj/XuB9yIJbxIhosn5IS0WIsWNuUciCe/iKqLV+SEtFqGbp2R7RhI+xLsjHh6W0mIByrwZ/yidSIidEEMzcLgzOOAt4qFhKS0mx3uFd5WGEn6Kd37Aw0Oblt+pNyHd9ovlUSi7l5UWEzOUgEgjCZ9azx0++dpz/8B8dy0nLSZlOAGRBhLuWc/4+73I6HmqsmtYSosJGVJAJFjCo+sZ/7YLEZ2umu9aPlpMxrACIsES4kh/NL2IaLEsLJu7IS0mw2tlpkighGb3X3byGHqXg/eyjjYtFy0mouUj1LtIoIQeB7vWXdFFxCmblosWk5DmKdmeSS4h0lxEpwP508NSWjwDKwcz6xGPI1i6FJAQaS2ix7I9vUysOIuHjVv9c5cVUkRCpKWIeF2PgzrWGXu9C87/Y5ZP4uVKIQldbpjdgMew9KkDy/oHryOB4pxKEi5p2RE9lvFhN8REAiZOoISR+0krET2W8SkJo45wikMCJQSR+0orEU2XcTm9u7scmEjCxAmWMLIbIi1EDO+GLxWeQj1ygiUEQ4hoeYHy0QUnTJTEaSAhiBbxbidxwnqEeHMZMFESp5GEACJix3KX8ZnzKges77S42dExURKnoYQrUV2xxbA0pBtioiROBxKCuSsGPFgrWkTrbigJK6YTCVciuuLNcysnzLrhrQs0mCiJ05mEwFvE6G7oPiTFREmcDiUElUS0XhZJWC2dSgi8RYwclroOSTFREqdjCYGniKHd0PgG8osDCCZK4nQuIfAUMWU3nCIJKyWBhMBLxMhuKAkVniQSAq+H7kZ1Q7MDyfdPAGGiJE4iCYFlN1mTvhtioiROMgm9hqVR3VASKtdJJiHwEDFKQssh9WcHx4yVxEkoIbDsKNF3WZh3Q8xUSZykEmbuhpJQuUxSCYH1IwajLtBIQuUyiSUEljs0Mu/Uzlh2cUlYIcklPBnfgxghIbA6eEjCCkkuIbDaoZFUEi7D8RNmqCROAQnNzg0Dr5KaHjgwQyVxCkgIsnVDy4tKkjB7JOFVIiQEVr+zJMyeIhJafhJFEiqxKSIhMNmp14sdE+w1LJGEyr9IQpqIbigJlX8pJKHlMz7TSIjth5kpiVNIQmDWXSbY/C0x+V3xhUyYmZI4kpAmQkKzzo2ZKYkjCWkiJHz58ePH9ON4MDMlcSThdaLWyfI6h4OZKYkjCa+zdCg2f1MkoTJHEl4n23uFmJGSOMUkNP1M5gR7DUskoVJOQrMh3hRJqMSkmoRWVxynSEIlJuqENyMJlZhIwpuRhEpMiklo8imUbHfYY0ZK4hST0GSn1vuESmgk4XWi1okkVOZIQhrMh83fFH12VJkjCWkiJNRdFMq/SEKaCAlNflfdT1gghSTUnfVKzhSS0KoLImkknKJnzGSPJLyMnramhKeIhHruqJI3RSS02qERSajERhJeJUJCfReF8pUCElp/Y2+EhKYHDcxQSZwCElru0Km+Mnu9iIQZKomTXEJ9U+80P8xQSZzkElp2QSRCQnRafWe98pXEElqfC6Yaii6RhBWSVELLbrImogsCSahcJqmEljty5J30QBIql0koYeYuaPnJns/hM2asJE4yCT0ERKIkNO+CABMlcZJJaLkTr4m6IAMkoXKdRBJaDuXO87kzO2PWxb+fw2KiJE4SCb2Goem7IMBESZwEEnoJiER1QSAJFZ7OJfQUMLILnt7e3qYfZpGEldKxhJ4CIim74HJefHHwwERJnE4l9BYwtAtOWC7L1cEDEyVxOpSwkoDArAsukYTV0pmE3gIikcNQ4DoUBZgoidOJhNixXo0vXrBEd0HLZ6Ei9ACCiZI4HUgY0f2QaAGB+1AUYKIkTkMJ5+434S5g8F0SK9Zd8OZBBBMlcRpJGNX91tAO4kxIFwQv+EIKJW8aSBgtYIthqGkXvHVBZgUTa+OVwARLOISAE9bLeLeTYyIJEydYwsh9pYWAwHQZnzmfxST66KYYJlBC689P3ksrAcO7IFj/IBGTJlDCqC7YSkDgsYxPSwiw4K/Gl2UV51SS8NEFDGesH8GIPHVAYcVZRmxcCdl/CknYsgPidT1Ggg+7IKDFM2YhO0XD5ylREi6v45WWAgLsT9Z5eploMQlezyxJlQKdsLWAHsNQBOuLvd4VtJiI0+gfNkguYXMBJzxGVJuWixaT4XWETpGMEi7XGjC/cgIuTWHTctFiMryOZikSKKHVet7UJRzxOnhjvuz1bkKLCRlWxEAJwdEdtxcBre+QWLNr+WgxKUOKGCzh3nWMf9N6+LnieUFvcxcEtJiY4UQMlhBgHW+5i35Xd3DCc//YvZy0mJyhRGwg4cosI+sqyyV/dIVeuh9w2y+WA9Lu5aTFAgwjYkMJV2YZv9GLeCve+wOWmb3uU9BiESI/9d8sHUjYO94CYt6HDjq0WAivT0N0E0l4F1cBrT5wTovFwFChbCThTbw7IHJoGLpCi8WI2BjNIgkpEdv88DB0hRYLUlZESXhFKgEBLRalpIiS8AL3bexx4zEtFqaciJJwBtv1NeiOGpPzwHNosTilRJSEodsTr2PaBQEtDkAZEQeXML2AgBYH4fT+/j79yJ1BJYQM9CNzTnETENDiQHjd0hKWASWMHsW4CghocTBSv5k/kIRz95soJSCgxcGIPrKaZhAJW2yjEAEBLQ5IWhGLS4jtEnnutyZMQECLg5JSxKISzvJNtNgeoQICWhyYdCIWk7ClfEi4gIAWByeViIUkbL3emwgIaFHkebp3EQmHFRDQophJcUNwEQlbvk3UVEBAi+KT7t9DLCBhy4NdcwEBLYpPWg+THqaAhOEHurOnwTUXENCiuKBrEbNLuPz+kemi+51Di+KKbkVMLmH0Z3e7ExDQoqB0KWJyCUOGop18C9RNaFHcpDsRJeHDdNn9zqFFcZeuRMw+HHW+Mtq9gIAWxUO6ebp3cgmBRzeEfN0OP79Di+IpungzXxJ+pfdzv1vQoniaiHOauykgodXwPsXQk0GL4mmsdqDdKSAhOHIwSzX0ZNCi2ERTEYtIiHW45YtH1+8ETC3fCi2KzTQTsYiEKw/X4/KEvBLyrdCi2EUTEYtJCLAeIdktysi3QotiN+EiFpRwOGhRHCL0hmBJmB9aFIc5BX05iSQsAC0KE3D+4h5JmB9aFCaEnB9KwvzQojAjQkR0XPbaIgm0KEzxFlESJocWhTmeIkrC5NCicMFLREmYHFoUbniIKAmTQ4vCFbMbgpf75yA2ex2RBFoU7ljdEKwuWABaFCFYPO5PEhaAFkUYRz7ehnNLDUULQIsilD0XayRgIWhRhAOhXp8cnkrAYtCiaMYsI7sVaqnhHFACFoMWRXNmGb8h+YpCi0KIOGhRCBEHLQoh4qBFIUQctCiEiIMWhRBx0KIQIg5aFEJE8fHyPyqVv6v3oZmeAAAAAElFTkSuQmCC;" vertex="1" parent="1">
          <mxGeometry x="435" y="455" width="20" height="20" as="geometry" />
        </mxCell>
        <mxCell id="AsIQZ49urG--46RWY30z-10" value="Title Screen" style="text;html=1;align=center;verticalAlign=middle;whiteSpace=wrap;rounded=0;" vertex="1" parent="1">
          <mxGeometry x="110" y="60" width="140" height="30" as="geometry" />
        </mxCell>
        <mxCell id="AsIQZ49urG--46RWY30z-11" value="Pause Game Menu" style="text;html=1;align=center;verticalAlign=middle;whiteSpace=wrap;rounded=0;" vertex="1" parent="1">
          <mxGeometry x="85" y="1100" width="120" height="30" as="geometry" />
        </mxCell>
        <mxCell id="AsIQZ49urG--46RWY30z-13" value="" style="whiteSpace=wrap;html=1;aspect=fixed;" vertex="1" parent="1">
          <mxGeometry x="180" y="1150" width="440" height="440" as="geometry" />
        </mxCell>
        <mxCell id="AsIQZ49urG--46RWY30z-14" value="" style="rounded=0;whiteSpace=wrap;html=1;" vertex="1" parent="1">
          <mxGeometry x="35" y="1740" width="760" height="520" as="geometry" />
        </mxCell>
        <mxCell id="AsIQZ49urG--46RWY30z-15" value="In-Game Example Level" style="text;html=1;align=center;verticalAlign=middle;whiteSpace=wrap;rounded=0;" vertex="1" parent="1">
          <mxGeometry x="45" y="1700" width="140" height="30" as="geometry" />
        </mxCell>
        <mxCell id="AsIQZ49urG--46RWY30z-16" value="Game Paused" style="rounded=0;whiteSpace=wrap;html=1;" vertex="1" parent="1">
          <mxGeometry x="290" y="1190" width="215" height="40" as="geometry" />
        </mxCell>
        <mxCell id="AsIQZ49urG--46RWY30z-17" value="Continue" style="rounded=1;whiteSpace=wrap;html=1;" vertex="1" parent="1">
          <mxGeometry x="340" y="1260" width="120" height="60" as="geometry" />
        </mxCell>
        <mxCell id="AsIQZ49urG--46RWY30z-18" value="Save &amp;amp; Quit" style="rounded=1;whiteSpace=wrap;html=1;" vertex="1" parent="1">
          <mxGeometry x="340" y="1410" width="120" height="60" as="geometry" />
        </mxCell>
        <mxCell id="AsIQZ49urG--46RWY30z-19" value="Save" style="rounded=1;whiteSpace=wrap;html=1;" vertex="1" parent="1">
          <mxGeometry x="340" y="1335" width="120" height="60" as="geometry" />
        </mxCell>
        <mxCell id="AsIQZ49urG--46RWY30z-20" value="" style="rounded=1;whiteSpace=wrap;html=1;" vertex="1" parent="1">
          <mxGeometry x="410" y="1490" width="50" height="30" as="geometry" />
        </mxCell>
        <mxCell id="AsIQZ49urG--46RWY30z-21" value="" style="shape=image;verticalLabelPosition=bottom;labelBackgroundColor=default;verticalAlign=top;aspect=fixed;imageAspect=0;image=data:image/png,iVBORw0KGgoAAAANSUhEUgAAAOEAAADhCAYAAAA+s9J6AAAAAXNSR0IArs4c6QAAAARnQU1BAACxjwv8YQUAAAAJcEhZcwAADsMAAA7DAcdvqGQAAAAZdEVYdFNvZnR3YXJlAHBhaW50Lm5ldCA0LjAuMTczbp9jAAANF0lEQVR4Xu2dS3LbSBBEtec5tJ3738W+gENyeOO9BgkDEikmPwCqqruqMyMe5KmxQeHzUA2QAF8+Pj6EEA2hRSFEHLQohIiDFoUQcdCiECIOWhRCxEGLQog4aFEIEQctii44Tbyegf9mf08khxZFM2bxfv78+fHnz5/pj195e3vDD8lYEFoU4czyfReP5ffv3/ghGQtBiyIUyPTfxNZARDY/kQxaFCHM3W/pbJvz/v6OH+qGBaBFEQI62dGoGxaAFoU7p79//04/jmU5h1Q3TA4tCldOy1DSKuqGyaFF4cbeizD3IgmTQ4vCBQ8BEUmYHFoU5ngJiEjC5NCiMMVTwA98umYKe12RBFoUZrgKiEjC/NCiMMFdQEQS5ocWhQk4V3OPJMwPLYrDnJ75MLZFJGF+aFEc4vTr16/pR0wkYX5oUewm5DzwPJIwP7QodhEuIFJQQqxHnE/fAv+f/bu00KLYTBMBkWISPlyPFZ8wQItiE80ERApJeNpyb2UlGWlRPE1TAZEiEh65tQvrP7WMtCieBhu/aQpIaHUgwzxSikiL4ilMbsw9mgISmh3Ilu2RrivSoniI9Y25uyMJaVINUWlR3CX0zfhHSS6h9yeLUgxRaVHcxOr8xSzJJYw4p+5eRFoUlO4ERCTh4/R+rkiL4oouBUQk4aZ02RVpUVzQrYBI9nPCBufX3YlIi+KTrgVEkksIorvh+rzWboantCg+Cd9BtqaAhGH3XpJ00RVpUcx08Wb8oxSQELQ82DUXkRbFx2n5gHD3KSJh62F/UxFpcXBa7xCbUkRCMKyItDgwqQRECkkIsP4xNG21DZqISIuDkk5ApJiEKy1lDBeRFgckpYBIUQlXZhmrv5dIi4ORVkCkuIQrLbZRmIi0OBCpBUQGkRBgW0UPUUNEpMWB6P7N+EcZSMKV6AOnu4i0OAibHizUawaUEMxdMfBc0VVEWhyArm7MPZJBJVyJ7IpuItJicSI3nHsGlxCkF5EWC1NKQEQSzmC7vgadXuA6AvsddkOLRSknICIJL3DfxstpjGk3pMWClBQQkYRXRGxrzN9MRFosRlkBEUlISSUiLRYj/XuB9yIJbxIhosn5IS0WIsWNuUciCe/iKqLV+SEtFqGbp2R7RhI+xLsjHh6W0mIByrwZ/yidSIidEEMzcLgzOOAt4qFhKS0mx3uFd5WGEn6Kd37Aw0Oblt+pNyHd9ovlUSi7l5UWEzOUgEgjCZ9azx0++dpz/8B8dy0nLSZlOAGRBhLuWc/4+73I6HmqsmtYSosJGVJAJFjCo+sZ/7YLEZ2umu9aPlpMxrACIsES4kh/NL2IaLEsLJu7IS0mw2tlpkighGb3X3byGHqXg/eyjjYtFy0mouUj1LtIoIQeB7vWXdFFxCmblosWk5DmKdmeSS4h0lxEpwP508NSWjwDKwcz6xGPI1i6FJAQaS2ix7I9vUysOIuHjVv9c5cVUkRCpKWIeF2PgzrWGXu9C87/Y5ZP4uVKIQldbpjdgMew9KkDy/oHryOB4pxKEi5p2RE9lvFhN8REAiZOoISR+0krET2W8SkJo45wikMCJQSR+0orEU2XcTm9u7scmEjCxAmWMLIbIi1EDO+GLxWeQj1ygiUEQ4hoeYHy0QUnTJTEaSAhiBbxbidxwnqEeHMZMFESp5GEACJix3KX8ZnzKges77S42dExURKnoYQrUV2xxbA0pBtioiROBxKCuSsGPFgrWkTrbigJK6YTCVciuuLNcysnzLrhrQs0mCiJ05mEwFvE6G7oPiTFREmcDiUElUS0XhZJWC2dSgi8RYwclroOSTFREqdjCYGniKHd0PgG8osDCCZK4nQuIfAUMWU3nCIJKyWBhMBLxMhuKAkVniQSAq+H7kZ1Q7MDyfdPAGGiJE4iCYFlN1mTvhtioiROMgm9hqVR3VASKtdJJiHwEDFKQssh9WcHx4yVxEkoIbDsKNF3WZh3Q8xUSZykEmbuhpJQuUxSCYH1IwajLtBIQuUyiSUEljs0Mu/Uzlh2cUlYIcklPBnfgxghIbA6eEjCCkkuIbDaoZFUEi7D8RNmqCROAQnNzg0Dr5KaHjgwQyVxCkgIsnVDy4tKkjB7JOFVIiQEVr+zJMyeIhJafhJFEiqxKSIhMNmp14sdE+w1LJGEyr9IQpqIbigJlX8pJKHlMz7TSIjth5kpiVNIQmDWXSbY/C0x+V3xhUyYmZI4kpAmQkKzzo2ZKYkjCWkiJHz58ePH9ON4MDMlcSThdaLWyfI6h4OZKYkjCa+zdCg2f1MkoTJHEl4n23uFmJGSOMUkNP1M5gR7DUskoVJOQrMh3hRJqMSkmoRWVxynSEIlJuqENyMJlZhIwpuRhEpMiklo8imUbHfYY0ZK4hST0GSn1vuESmgk4XWi1okkVOZIQhrMh83fFH12VJkjCWkiJNRdFMq/SEKaCAlNflfdT1gghSTUnfVKzhSS0KoLImkknKJnzGSPJLyMnramhKeIhHruqJI3RSS02qERSajERhJeJUJCfReF8pUCElp/Y2+EhKYHDcxQSZwCElru0Km+Mnu9iIQZKomTXEJ9U+80P8xQSZzkElp2QSRCQnRafWe98pXEElqfC6Yaii6RhBWSVELLbrImogsCSahcJqmEljty5J30QBIql0koYeYuaPnJns/hM2asJE4yCT0ERKIkNO+CABMlcZJJaLkTr4m6IAMkoXKdRBJaDuXO87kzO2PWxb+fw2KiJE4SCb2Goem7IMBESZwEEnoJiER1QSAJFZ7OJfQUMLILnt7e3qYfZpGEldKxhJ4CIim74HJefHHwwERJnE4l9BYwtAtOWC7L1cEDEyVxOpSwkoDArAsukYTV0pmE3gIikcNQ4DoUBZgoidOJhNixXo0vXrBEd0HLZ6Ei9ACCiZI4HUgY0f2QaAGB+1AUYKIkTkMJ5+434S5g8F0SK9Zd8OZBBBMlcRpJGNX91tAO4kxIFwQv+EIKJW8aSBgtYIthqGkXvHVBZgUTa+OVwARLOISAE9bLeLeTYyIJEydYwsh9pYWAwHQZnzmfxST66KYYJlBC689P3ksrAcO7IFj/IBGTJlDCqC7YSkDgsYxPSwiw4K/Gl2UV51SS8NEFDGesH8GIPHVAYcVZRmxcCdl/CknYsgPidT1Ggg+7IKDFM2YhO0XD5ylREi6v45WWAgLsT9Z5eploMQlezyxJlQKdsLWAHsNQBOuLvd4VtJiI0+gfNkguYXMBJzxGVJuWixaT4XWETpGMEi7XGjC/cgIuTWHTctFiMryOZikSKKHVet7UJRzxOnhjvuz1bkKLCRlWxEAJwdEdtxcBre+QWLNr+WgxKUOKGCzh3nWMf9N6+LnieUFvcxcEtJiY4UQMlhBgHW+5i35Xd3DCc//YvZy0mJyhRGwg4cosI+sqyyV/dIVeuh9w2y+WA9Lu5aTFAgwjYkMJV2YZv9GLeCve+wOWmb3uU9BiESI/9d8sHUjYO94CYt6HDjq0WAivT0N0E0l4F1cBrT5wTovFwFChbCThTbw7IHJoGLpCi8WI2BjNIgkpEdv88DB0hRYLUlZESXhFKgEBLRalpIiS8AL3bexx4zEtFqaciJJwBtv1NeiOGpPzwHNosTilRJSEodsTr2PaBQEtDkAZEQeXML2AgBYH4fT+/j79yJ1BJYQM9CNzTnETENDiQHjd0hKWASWMHsW4CghocTBSv5k/kIRz95soJSCgxcGIPrKaZhAJW2yjEAEBLQ5IWhGLS4jtEnnutyZMQECLg5JSxKISzvJNtNgeoQICWhyYdCIWk7ClfEi4gIAWByeViIUkbL3emwgIaFHkebp3EQmHFRDQophJcUNwEQlbvk3UVEBAi+KT7t9DLCBhy4NdcwEBLYpPWg+THqaAhOEHurOnwTUXENCiuKBrEbNLuPz+kemi+51Di+KKbkVMLmH0Z3e7ExDQoqB0KWJyCUOGop18C9RNaFHcpDsRJeHDdNn9zqFFcZeuRMw+HHW+Mtq9gIAWxUO6ebp3cgmBRzeEfN0OP79Di+IpungzXxJ+pfdzv1vQoniaiHOauykgodXwPsXQk0GL4mmsdqDdKSAhOHIwSzX0ZNCi2ERTEYtIiHW45YtH1+8ETC3fCi2KzTQTsYiEKw/X4/KEvBLyrdCi2EUTEYtJCLAeIdktysi3QotiN+EiFpRwOGhRHCL0hmBJmB9aFIc5BX05iSQsAC0KE3D+4h5JmB9aFCaEnB9KwvzQojAjQkR0XPbaIgm0KEzxFlESJocWhTmeIkrC5NCicMFLREmYHFoUbniIKAmTQ4vCFbMbgpf75yA2ex2RBFoU7ljdEKwuWABaFCFYPO5PEhaAFkUYRz7ehnNLDUULQIsilD0XayRgIWhRhAOhXp8cnkrAYtCiaMYsI7sVaqnhHFACFoMWRXNmGb8h+YpCi0KIOGhRCBEHLQoh4qBFIUQctCiEiIMWhRBx0KIQIg5aFEJE8fHyPyqVv6v3oZmeAAAAAElFTkSuQmCC;" vertex="1" parent="1">
          <mxGeometry x="425" y="1495" width="20" height="20" as="geometry" />
        </mxCell>
        <mxCell id="AsIQZ49urG--46RWY30z-22" value="" style="rounded=1;whiteSpace=wrap;html=1;" vertex="1" parent="1">
          <mxGeometry x="340" y="1490" width="50" height="30" as="geometry" />
        </mxCell>
        <mxCell id="AsIQZ49urG--46RWY30z-23" value="" style="shape=image;verticalLabelPosition=bottom;labelBackgroundColor=default;verticalAlign=top;aspect=fixed;imageAspect=0;image=data:image/png,iVBORw0KGgoAAAANSUhEUgAAAOEAAADhCAYAAAA+s9J6AAAAAXNSR0IArs4c6QAAAARnQU1BAACxjwv8YQUAAAAJcEhZcwAADsMAAA7DAcdvqGQAAAAZdEVYdFNvZnR3YXJlAHBhaW50Lm5ldCA0LjAuMTczbp9jAAAOW0lEQVR4Xu2dv4/b2BWFXQbQ1kHKNAa2StogZZqkS5P/Mn/GAqmCtEHgBaZIseudGRgG3AxSTN6RybFGcyTxx733vfveOcBHydc2NdTw432kSOrd8/OzEKIitCiEiIMWhRBx0KIQIg5aFELEQYtCiDhoUQgRBy0KIeKgRdEEh8L7E/Bn9u9EcmgxiF+R2ugcxfvxxx+fP336VJ5+y/39PR4kY4fQYgB/K/y38P1JbWSO8p2Lx/L4+IgHydgRtOgMBPxfAfmpMLqIkOl3hbWBiGx+Ihm06MipgHNGFfHY/abOtjoPDw94UDfsAFp0ggk4Z0QR0cn2Rt2wA2jRgWsCzhlJxMOXL1/Kw75M+5DqhsmhRWOWCDhnBBEP01DSKuqGyaFFQ9YIOKdnEbcehLkWSZgcWjRii4BzehTRQ0BEEiaHFg3YI+CcnkT0EhCRhMmhxZ1YCDinBxE9BXzG2TUl7HVFEmhxB5YCzsksoquAiCTMDy1uxEPAORlFdBcQkYT5ocUNeAo4J5uI2FdzjyTMDy2uJELAOVlEPCw5GdsikjA/tLiCSAHntC7i4ePHj+UhJpIwP7S4kBoCzmlVxJD9wNNIwvzQ4gJqCjinNRHDBUQ6lBDvI/anL4G/Z/8vLbR4gxYEnNOKiFUERDqT8Ob72OMdBmjxCi0JOKe2iNUERDqS8LDm2sqeZKTFC7Qo4JxaIlYVEOlEwj2XduH9Ty0jLRJaFnBODRHxy6+aDiS02pBhHilFpMUz/lJoXcA5kSKaXJi7Nx1IaLYhm34f6boiLZ7xXeGHQpZEiGh9Ye7mSEKaVENUWiRIxG+Efhh/K8kl9D6zKMUQlRYvIBG//kIt9l/MklzCiH3q5kWkxSuMLGJzAiKS8HZa31ekxRuMKGKTAiKScFWa7Iq0uICRRGxWQCT7PmGF/evmRKTFhYwgYtMCIsklBNHdcL5fazPDU1pcQe8ihq8ga9OBhGHXXpI00RVpcSW9itjEh/G30oGEoObGrrqItLiB3kQ8TCcIN59OJKw97K8qIi1upBcRa68Qq9KJhGBYEWlxB9lFTCUg0pGEAO8/hqa1fgdVRKTFnWQVMZ2ASGcSztSUMVxEWjQgm4g/F/769WmudCrhzFHG3j9LpEUjsomYMp1LOFNjlBImIi0aIhGdM4iE4NgVC5EyhohIi8ZIRMcMJOFMdFd0F5EWHZCIThlQQnDsioH7iq4i0qITEtEhg0o4E9kV3USkRUckonEGlxCkF5EWnZGIhpGERyDG+zX3Ld0RHBxiP8NmaDEAiWgUSfgK96447YeadkNaDEIiGkQSviFieGo6LKXFQCTizkhCSioRaTEYibgjkvAiESKa7B/SYgUk4sZIwqu4imi1f0iLlZCIGyIJb+LdEXcPS2mxIhJxZRqRECshhmZgd2dwwFvEXcNSWqyMRFyRihK+iHd6+hhu2jT9TK0J6SbidCuUzctKiw0gERemkoSLVugG73ztJmLJ5mEpLTaCRFyQChJuWZHx71uR0fOGw5uGpbTYEBLxRoIl3NtJNncLY7xuZ7lp+WixMSTilQRLiC393rQiosWysKzuhrTYIBLxQgIlPFidIN3Ibej3dnWa6T1atVy02CgSkSRQQo/OUbsruohYsmq5aLFhJOJZkkuIVBfR6bswFg9LafEEvDmYWUv8vvDPglLSgYRIbRE9lm3xMrHiUTz8cjN8Icro6URCpKaIeF28vnXwnrHXe8XpH47ySbxc6UhClwtmV+AxLF20YZmfeG0JFOf0JOGUmh3RYxlvdkNMJGDiBEoYuZ7UEtFjGRdJGLWFUxwSKCGIXFdqiWi6jNPu3dXlwEQSJk6whJHdEKkhYng3fBd0mzjFKcESgiFEtDxAeeuAEyZK4lSQEESLeLWTOGE9Qry4DJgoiVNJQgARsWK5y7hkv8oB6ystLnZ0TJTEqSjhTFRXrDEsDemGmCiJ04CE4NgVHx4eyoNrokW07oaSsMc0IuFMRFe8uG/lhFk3vHSABhMlcRqTEHiLGN0N3YekmCiJ06CEoCcRrZdFEvaWRiUE3iJGDktdh6SYKInTsITAU8TQbjjdW9QqrzYgmCiJ07iEwFPElN2wRBL2lAQSAi8RI7uhJFR4kkgIvG66G9UNzTYk52cAYaIkTiIJgWU3mZO+G2KiJE4yCb2GpVHdUBIqb5NMQuAhYpSElkPqlw6OGSuJc3d3h4fzlaV1LDtK9FUW5t0QM1US5+npCQ+/KZyvLC2TuRtKQoXm34V0IhrfYjDqAI0kVC4mo4iWKzRyXKmdsezikrDDZBPxYHwNYoSEwGrjIQk7TTYRrVZoJJWE03D8gBkq/SWTiGb7hoFHSU03HJih0mcyiZitG1oeVJKEnSeLiNkkBFY/syQcIBlEtDwTRRIqTSaDiCYr9Xywo8BewxJJqKxO6yJardRIRDeUhMqmtCyi5T0+00iIE/AxM2WstCyiWXcpsPlbYvKz4guZMDNlvLQqYiYJzTo3ZqaMmRZFzCThuw8fPpSH/cHMlHHTmogmEkZd6Dy9zu5gZsrYaUlEEwmnDsXmb4okVCzTiogmEmb7rBAzUhSkBRFNz8kssNewRBIq5qkuotUQr0QSKmlTVUSrI44lklBJnWoiqhMqyrdUEVESKsrrRItochZKtivsMSNFuZZIEU1Wan1OqPSYKBFNJJzkYPM3RRIq0YkQ0UTCEsyHzd8UnTuq1Ii3iJkk1FUUSrV4iphJQpOfVdcTKlvjIaKurFeUlbEW0aoLImkkLNE9ZpRdsRTRZKXW3daUEWMhou47qig7s1dEqxUakYTKsNkjYjYJ9V0USrPZIqL1N/ZGSGi60cAMFcUya0W0XKFTfWX2fBAJM1QU6ywVUd/UW+aHGSqKR5aIaNkFkQgJ0Wn1nfVKmlwT0XpfMNVQdIokVELCRLTsJnMiuiCQhErKnItouSJHXkkPJKGSNrOImbug5Zk9L8NnzFhJnKenp+lZivyn8KevT00TJaF5FwSYKIlzd3eHB3SZURN1QAZIQuVtpvucYJg3qohRXdBsGH2+D4uJkjgnNzUaUcT0XRBgoiTO2Z3FRhMxqgsCSajwnEkIRhExsgse7u/vy4NZJGFPIRKCEURM2QWnjzhebTwwURLngoSgZxFDu2DB5IDMlDcbD0yUxLkiIehRxEgBgVkXnCIJe8sNCUFvIkYOQ4HrUBRgoiTOAglBLyJGd0HLe6EidAOCiZI4CyUE2UWMFhC4D0UBJkrirJAQpBQx+CqJGesueHEjgomSOCslBBlF/GOBLYsnIV0QvMMXUih5s0FCkE1EXH2Bn5ktiwemXfDSAZkZTKyNVwKzUUKQTUT8rBEiQhbLzwWRi10QYCIJE2eHhCCbiD8UviuwZbHC1Icl+7OYeJivBGWnhEAifiO8C4L5iURMGgMJgUT8iseocLGEACK+Nz4sqzjHSEIwuojWt2BELn4scQorHmXEL1dCth9DCcGoInqNBG92QUCLJxyFbBQNn0uMJQQjioj1yTqLuiCgxSRY3n4ubRwkBCOJ6DEMRSA2e7030GIiDqOfbOAkIRhBRK9h6OIuCGgxGR5DiTRxlBD0LKKLgFNTWCwgoMVkeG3NUsRZQtCriF4b78XD0BlaTMiwIgZICHoT0foKiTmrhqEztJiUIUUMkhBARJxInSWXRPQ8oLe6CwJaTMxwIgZKCLKL6Ll+bOqCgBaTM5SIwRKCrENTt/ViuifpJgEBLXbAMCJWkBBkE/EfhT98feqSTcPQGVrsBOu7JjeZShKCbCJ6ZfMwdIYWO8LrbIhmUlFCMLSIt66YXwotdkbXH+ZXlhCMLOKuYegMLXZG1/uHDUgIRhRx9zB0hhY7pFsRG5EQjCSimYCAFjulSxEbkhB0L6LVfuAptNgx3YnYmISgdxFN9gNPocXO6UrEBiUEvYpoOgydocUB6EbERiUEvYnoIiCgxUE4PDw8lIfcaVhC0IuIbgICWhwIr0tawtK4hCC7iK4CAlocjNQf5ieQEGQV0V1AQIuDkXr/MImEIJuI/yr8usCWxRRaHJC0IiaSEGQTcemtMnZBi4OSUsRkEgKJeAYtDkw6ERNKCCTiCbQ4OKlETCoh+G3hp0KWuIlIiyLP3b0TSwi+LwwvIi2KIykuCE4uIYCIvxSyxFxEWhQvNP8ZYgcSHj5//lweUsVURFoULzS/f9iBhFlPljATkRbFK5oWMbuE08+fNSYi0qJ4Q7MiJpcw/bm7JbtFpEVBaVLE5BKmPm/3JLtEpEVxkeZElITNZLOItCiu0pSI2Yejnd0XdpOItChu0szdvZNLCHrqhshqEWlRLKKJrbgkbDKrRKRFsZjqK1AHEjb9EdCOLBaRFsViqq9AHUgIeuyGyCIRaVGsoqqInUiI9/B9p9+idVNEWhSrqSZiJxLO3Hwfpzvk/bnwM54kyVURaVFsooqInUkIjl3xCvh7/LtMl0FJwkDCRexQwjVkEFHD0QqEXhA8uISgZRF1YKYih8fHx/LgH0l4pEURFwkIaFGYgP0X90jCF1oScbGAgBaFCSH7h5LwFS2IuEpAQIvCjAgR0XHZa49KTRFXCwhoUZjiLaIkfEsNETcJCGhRmOMpoiTkRIq4WUBAi8IFLxEl4WUiRNwlIKBF4YaHiJLwOp4i7hYQ0KJwxeyC4OkmSRCbvY74hoeIJgICWhTuWF0QrC64HEsRzQQEtChCsLjdnyRch4WIpgICWhRh7Dm9DfuWGoquZ4+I5gICWhShbDlYIwH3sUVEFwEBLYpwINT7hcNTCWjDGhHdBAS0KKpxlJFdCjXVsA8oAe1YIqKrgIAWRXWOMp4h+Xy4JqK7gIAWhRgMJmKIgIAWhRiQUxHDBAS0KMSgQMS/F8IEBLQohIiDFoUQcdCiECIOWhRCxEGLQogont/9Hx4kKbJ4BN2sAAAAAElFTkSuQmCC;" vertex="1" parent="1">
          <mxGeometry x="355" y="1495" width="20" height="20" as="geometry" />
        </mxCell>
        <mxCell id="AsIQZ49urG--46RWY30z-24" value="Settings" style="rounded=1;whiteSpace=wrap;html=1;" vertex="1" parent="1">
          <mxGeometry x="350" y="310" width="120" height="60" as="geometry" />
        </mxCell>
        <mxCell id="AsIQZ49urG--46RWY30z-25" value="" style="whiteSpace=wrap;html=1;aspect=fixed;" vertex="1" parent="1">
          <mxGeometry x="210" y="620" width="410" height="410" as="geometry" />
        </mxCell>
        <mxCell id="AsIQZ49urG--46RWY30z-26" value="Play Game Pop-up" style="text;html=1;align=center;verticalAlign=middle;whiteSpace=wrap;rounded=0;" vertex="1" parent="1">
          <mxGeometry x="100" y="580" width="120" height="30" as="geometry" />
        </mxCell>
        <mxCell id="AsIQZ49urG--46RWY30z-27" value="New Game" style="rounded=1;whiteSpace=wrap;html=1;" vertex="1" parent="1">
          <mxGeometry x="350" y="850" width="120" height="60" as="geometry" />
        </mxCell>
        <mxCell id="AsIQZ49urG--46RWY30z-28" value="Continue" style="rounded=1;whiteSpace=wrap;html=1;" vertex="1" parent="1">
          <mxGeometry x="350" y="770" width="120" height="60" as="geometry" />
        </mxCell>
        <mxCell id="AsIQZ49urG--46RWY30z-29" value="Logical Gate Logo" style="rounded=0;whiteSpace=wrap;html=1;" vertex="1" parent="1">
          <mxGeometry x="290" y="650" width="250" height="80" as="geometry" />
        </mxCell>
        <mxCell id="AsIQZ49urG--46RWY30z-30" value="Character" style="shape=umlActor;verticalLabelPosition=bottom;verticalAlign=top;html=1;outlineConnect=0;" vertex="1" parent="1">
          <mxGeometry x="60" y="2230" width="20" height="30" as="geometry" />
        </mxCell>
        <mxCell id="AsIQZ49urG--46RWY30z-31" value="" style="rounded=1;whiteSpace=wrap;html=1;" vertex="1" parent="1">
          <mxGeometry x="570" y="1820" width="120" height="10" as="geometry" />
        </mxCell>
        <mxCell id="AsIQZ49urG--46RWY30z-32" value="" style="rounded=1;whiteSpace=wrap;html=1;" vertex="1" parent="1">
          <mxGeometry x="590" y="2160" width="90" height="10" as="geometry" />
        </mxCell>
        <mxCell id="AsIQZ49urG--46RWY30z-33" value="" style="rounded=1;whiteSpace=wrap;html=1;" vertex="1" parent="1">
          <mxGeometry x="35" y="2090" width="755" height="10" as="geometry" />
        </mxCell>
        <mxCell id="AsIQZ49urG--46RWY30z-34" value="" style="rounded=1;whiteSpace=wrap;html=1;" vertex="1" parent="1">
          <mxGeometry x="685" y="2090" width="65" height="10" as="geometry" />
        </mxCell>
        <mxCell id="AsIQZ49urG--46RWY30z-36" value="" style="rounded=0;whiteSpace=wrap;html=1;" vertex="1" parent="1">
          <mxGeometry x="570" y="1740" width="10" height="350" as="geometry" />
        </mxCell>
        <mxCell id="AsIQZ49urG--46RWY30z-37" value="Door" style="text;html=1;align=center;verticalAlign=middle;whiteSpace=wrap;rounded=0;" vertex="1" parent="1">
          <mxGeometry x="685" y="2060" width="60" height="30" as="geometry" />
        </mxCell>
        <mxCell id="AsIQZ49urG--46RWY30z-82" style="edgeStyle=orthogonalEdgeStyle;rounded=0;orthogonalLoop=1;jettySize=auto;html=1;entryX=0;entryY=1;entryDx=0;entryDy=0;" edge="1" parent="1" source="AsIQZ49urG--46RWY30z-39" target="AsIQZ49urG--46RWY30z-64">
          <mxGeometry relative="1" as="geometry">
            <Array as="points">
              <mxPoint x="240" y="2220" />
              <mxPoint x="405" y="2220" />
            </Array>
          </mxGeometry>
        </mxCell>
        <mxCell id="AsIQZ49urG--46RWY30z-39" value="" style="rounded=0;whiteSpace=wrap;html=1;" vertex="1" parent="1">
          <mxGeometry x="230" y="2250" width="20" height="10" as="geometry" />
        </mxCell>
        <mxCell id="AsIQZ49urG--46RWY30z-40" value="" style="rounded=0;whiteSpace=wrap;html=1;" vertex="1" parent="1">
          <mxGeometry x="530" y="2250" width="20" height="10" as="geometry" />
        </mxCell>
        <mxCell id="AsIQZ49urG--46RWY30z-41" value="" style="rounded=1;whiteSpace=wrap;html=1;" vertex="1" parent="1">
          <mxGeometry x="235" y="2190" width="130" height="10" as="geometry" />
        </mxCell>
        <mxCell id="AsIQZ49urG--46RWY30z-42" value="" style="rounded=0;whiteSpace=wrap;html=1;" vertex="1" parent="1">
          <mxGeometry x="640" y="2150" width="20" height="10" as="geometry" />
        </mxCell>
        <mxCell id="AsIQZ49urG--46RWY30z-43" value="Final Door" style="text;html=1;align=center;verticalAlign=middle;whiteSpace=wrap;rounded=0;" vertex="1" parent="1">
          <mxGeometry x="285" y="1740" width="60" height="30" as="geometry" />
        </mxCell>
        <mxCell id="AsIQZ49urG--46RWY30z-44" value="Button" style="text;html=1;align=center;verticalAlign=middle;whiteSpace=wrap;rounded=0;" vertex="1" parent="1">
          <mxGeometry x="250" y="2230" width="60" height="30" as="geometry" />
        </mxCell>
        <mxCell id="AsIQZ49urG--46RWY30z-83" style="edgeStyle=orthogonalEdgeStyle;rounded=0;orthogonalLoop=1;jettySize=auto;html=1;entryX=1;entryY=1;entryDx=0;entryDy=0;" edge="1" parent="1" source="AsIQZ49urG--46RWY30z-45" target="AsIQZ49urG--46RWY30z-64">
          <mxGeometry relative="1" as="geometry" />
        </mxCell>
        <mxCell id="AsIQZ49urG--46RWY30z-45" value="Button" style="text;html=1;align=center;verticalAlign=middle;whiteSpace=wrap;rounded=0;" vertex="1" parent="1">
          <mxGeometry x="510" y="2230" width="60" height="30" as="geometry" />
        </mxCell>
        <mxCell id="AsIQZ49urG--46RWY30z-85" style="edgeStyle=orthogonalEdgeStyle;rounded=0;orthogonalLoop=1;jettySize=auto;html=1;entryX=1;entryY=0.5;entryDx=0;entryDy=0;" edge="1" parent="1" source="AsIQZ49urG--46RWY30z-46" target="AsIQZ49urG--46RWY30z-66">
          <mxGeometry relative="1" as="geometry">
            <Array as="points">
              <mxPoint x="600" y="2155" />
              <mxPoint x="600" y="2155" />
            </Array>
          </mxGeometry>
        </mxCell>
        <mxCell id="AsIQZ49urG--46RWY30z-46" value="Button" style="text;html=1;align=center;verticalAlign=middle;whiteSpace=wrap;rounded=0;" vertex="1" parent="1">
          <mxGeometry x="620" y="2130" width="60" height="30" as="geometry" />
        </mxCell>
        <mxCell id="AsIQZ49urG--46RWY30z-89" style="edgeStyle=orthogonalEdgeStyle;rounded=0;orthogonalLoop=1;jettySize=auto;html=1;entryX=0;entryY=1;entryDx=0;entryDy=0;" edge="1" parent="1" source="AsIQZ49urG--46RWY30z-47" target="AsIQZ49urG--46RWY30z-69">
          <mxGeometry relative="1" as="geometry" />
        </mxCell>
        <mxCell id="AsIQZ49urG--46RWY30z-47" value="" style="rounded=0;whiteSpace=wrap;html=1;" vertex="1" parent="1">
          <mxGeometry x="580" y="1950" width="10" height="20" as="geometry" />
        </mxCell>
        <mxCell id="AsIQZ49urG--46RWY30z-90" style="edgeStyle=orthogonalEdgeStyle;rounded=0;orthogonalLoop=1;jettySize=auto;html=1;entryX=1;entryY=1;entryDx=0;entryDy=0;" edge="1" parent="1" source="AsIQZ49urG--46RWY30z-48" target="AsIQZ49urG--46RWY30z-69">
          <mxGeometry relative="1" as="geometry" />
        </mxCell>
        <mxCell id="AsIQZ49urG--46RWY30z-48" value="" style="rounded=0;whiteSpace=wrap;html=1;" vertex="1" parent="1">
          <mxGeometry x="785" y="1880" width="10" height="20" as="geometry" />
        </mxCell>
        <mxCell id="AsIQZ49urG--46RWY30z-49" value="" style="rounded=0;whiteSpace=wrap;html=1;" vertex="1" parent="1">
          <mxGeometry x="570" y="1760" width="10" height="60" as="geometry" />
        </mxCell>
        <mxCell id="AsIQZ49urG--46RWY30z-50" value="Door" style="text;html=1;align=center;verticalAlign=middle;whiteSpace=wrap;rounded=0;" vertex="1" parent="1">
          <mxGeometry x="545" y="1740" width="60" height="30" as="geometry" />
        </mxCell>
        <mxCell id="AsIQZ49urG--46RWY30z-51" value="" style="rounded=1;whiteSpace=wrap;html=1;" vertex="1" parent="1">
          <mxGeometry x="200" y="1900" width="50" height="10" as="geometry" />
        </mxCell>
        <mxCell id="AsIQZ49urG--46RWY30z-52" value="" style="rounded=1;whiteSpace=wrap;html=1;" vertex="1" parent="1">
          <mxGeometry x="110" y="1990" width="50" height="10" as="geometry" />
        </mxCell>
        <mxCell id="AsIQZ49urG--46RWY30z-53" value="" style="rounded=1;whiteSpace=wrap;html=1;" vertex="1" parent="1">
          <mxGeometry x="300" y="2000" width="50" height="10" as="geometry" />
        </mxCell>
        <mxCell id="AsIQZ49urG--46RWY30z-54" value="" style="rounded=1;whiteSpace=wrap;html=1;" vertex="1" parent="1">
          <mxGeometry x="420" y="1900" width="50" height="10" as="geometry" />
        </mxCell>
        <mxCell id="AsIQZ49urG--46RWY30z-58" value="" style="rounded=1;whiteSpace=wrap;html=1;" vertex="1" parent="1">
          <mxGeometry x="220" y="1800" width="130" height="10" as="geometry" />
        </mxCell>
        <mxCell id="AsIQZ49urG--46RWY30z-59" value="" style="rounded=0;whiteSpace=wrap;html=1;" vertex="1" parent="1">
          <mxGeometry x="300" y="1760" width="30" height="40" as="geometry" />
        </mxCell>
        <mxCell id="AsIQZ49urG--46RWY30z-84" style="edgeStyle=orthogonalEdgeStyle;rounded=0;orthogonalLoop=1;jettySize=auto;html=1;entryX=0;entryY=0.5;entryDx=0;entryDy=0;" edge="1" parent="1" source="AsIQZ49urG--46RWY30z-64" target="AsIQZ49urG--46RWY30z-66">
          <mxGeometry relative="1" as="geometry" />
        </mxCell>
        <mxCell id="AsIQZ49urG--46RWY30z-64" value="" style="whiteSpace=wrap;html=1;aspect=fixed;" vertex="1" parent="1">
          <mxGeometry x="405" y="2135" width="40" height="40" as="geometry" />
        </mxCell>
        <mxCell id="AsIQZ49urG--46RWY30z-103" style="edgeStyle=orthogonalEdgeStyle;rounded=0;orthogonalLoop=1;jettySize=auto;html=1;entryX=0.5;entryY=1;entryDx=0;entryDy=0;" edge="1" parent="1" source="AsIQZ49urG--46RWY30z-66" target="AsIQZ49urG--46RWY30z-34">
          <mxGeometry relative="1" as="geometry">
            <Array as="points">
              <mxPoint x="718" y="2140" />
            </Array>
          </mxGeometry>
        </mxCell>
        <mxCell id="AsIQZ49urG--46RWY30z-66" value="" style="whiteSpace=wrap;html=1;aspect=fixed;" vertex="1" parent="1">
          <mxGeometry x="490" y="2135" width="40" height="40" as="geometry" />
        </mxCell>
        <mxCell id="AsIQZ49urG--46RWY30z-67" value="AND Gate" style="text;html=1;align=center;verticalAlign=middle;whiteSpace=wrap;rounded=0;" vertex="1" parent="1">
          <mxGeometry x="395" y="2105" width="60" height="30" as="geometry" />
        </mxCell>
        <mxCell id="AsIQZ49urG--46RWY30z-68" value="XOR Gate" style="text;html=1;align=center;verticalAlign=middle;whiteSpace=wrap;rounded=0;" vertex="1" parent="1">
          <mxGeometry x="480" y="2105" width="60" height="30" as="geometry" />
        </mxCell>
        <mxCell id="AsIQZ49urG--46RWY30z-91" style="edgeStyle=orthogonalEdgeStyle;rounded=0;orthogonalLoop=1;jettySize=auto;html=1;entryX=1;entryY=0.5;entryDx=0;entryDy=0;" edge="1" parent="1" source="AsIQZ49urG--46RWY30z-69" target="AsIQZ49urG--46RWY30z-49">
          <mxGeometry relative="1" as="geometry" />
        </mxCell>
        <mxCell id="AsIQZ49urG--46RWY30z-69" value="" style="whiteSpace=wrap;html=1;aspect=fixed;" vertex="1" parent="1">
          <mxGeometry x="700" y="1770" width="40" height="40" as="geometry" />
        </mxCell>
        <mxCell id="AsIQZ49urG--46RWY30z-70" value="AND Gate" style="text;html=1;align=center;verticalAlign=middle;whiteSpace=wrap;rounded=0;" vertex="1" parent="1">
          <mxGeometry x="690" y="1740" width="60" height="30" as="geometry" />
        </mxCell>
        <mxCell id="AsIQZ49urG--46RWY30z-71" value="" style="rounded=0;whiteSpace=wrap;html=1;" vertex="1" parent="1">
          <mxGeometry x="215" y="1890" width="20" height="10" as="geometry" />
        </mxCell>
        <mxCell id="AsIQZ49urG--46RWY30z-72" value="" style="rounded=0;whiteSpace=wrap;html=1;" vertex="1" parent="1">
          <mxGeometry x="445" y="1890" width="20" height="10" as="geometry" />
        </mxCell>
        <mxCell id="AsIQZ49urG--46RWY30z-73" value="Virus" style="shape=umlActor;verticalLabelPosition=bottom;verticalAlign=top;html=1;outlineConnect=0;" vertex="1" parent="1">
          <mxGeometry x="390" y="2220" width="10" height="20" as="geometry" />
        </mxCell>
        <mxCell id="AsIQZ49urG--46RWY30z-74" value="Virus" style="shape=umlActor;verticalLabelPosition=bottom;verticalAlign=top;html=1;outlineConnect=0;" vertex="1" parent="1">
          <mxGeometry x="595" y="2050" width="10" height="20" as="geometry" />
        </mxCell>
        <mxCell id="AsIQZ49urG--46RWY30z-75" value="Virus" style="shape=umlActor;verticalLabelPosition=bottom;verticalAlign=top;html=1;outlineConnect=0;" vertex="1" parent="1">
          <mxGeometry x="130" y="1950" width="10" height="20" as="geometry" />
        </mxCell>
        <mxCell id="AsIQZ49urG--46RWY30z-76" value="Virus" style="shape=umlActor;verticalLabelPosition=bottom;verticalAlign=top;html=1;outlineConnect=0;" vertex="1" parent="1">
          <mxGeometry x="230" y="1760" width="10" height="20" as="geometry" />
        </mxCell>
        <mxCell id="AsIQZ49urG--46RWY30z-77" value="" style="rounded=0;whiteSpace=wrap;html=1;" vertex="1" parent="1">
          <mxGeometry x="110" y="1740" width="10" height="90" as="geometry" />
        </mxCell>
        <mxCell id="AsIQZ49urG--46RWY30z-100" style="edgeStyle=orthogonalEdgeStyle;rounded=0;orthogonalLoop=1;jettySize=auto;html=1;entryX=0;entryY=1;entryDx=0;entryDy=0;" edge="1" parent="1" source="AsIQZ49urG--46RWY30z-78" target="AsIQZ49urG--46RWY30z-93">
          <mxGeometry relative="1" as="geometry">
            <Array as="points">
              <mxPoint x="100" y="1745" />
              <mxPoint x="100" y="1865" />
              <mxPoint x="140" y="1865" />
            </Array>
          </mxGeometry>
        </mxCell>
        <mxCell id="AsIQZ49urG--46RWY30z-78" value="" style="rounded=0;whiteSpace=wrap;html=1;" vertex="1" parent="1">
          <mxGeometry x="65" y="1740" width="20" height="10" as="geometry" />
        </mxCell>
        <mxCell id="AsIQZ49urG--46RWY30z-79" value="Button" style="text;html=1;align=center;verticalAlign=middle;whiteSpace=wrap;rounded=0;" vertex="1" parent="1">
          <mxGeometry x="40" y="1750" width="60" height="30" as="geometry" />
        </mxCell>
        <mxCell id="AsIQZ49urG--46RWY30z-95" style="edgeStyle=orthogonalEdgeStyle;rounded=0;orthogonalLoop=1;jettySize=auto;html=1;entryX=0;entryY=1;entryDx=0;entryDy=0;" edge="1" parent="1" source="AsIQZ49urG--46RWY30z-80" target="AsIQZ49urG--46RWY30z-92">
          <mxGeometry relative="1" as="geometry">
            <Array as="points">
              <mxPoint x="340" y="1900" />
            </Array>
          </mxGeometry>
        </mxCell>
        <mxCell id="AsIQZ49urG--46RWY30z-80" value="Button" style="text;html=1;align=center;verticalAlign=middle;whiteSpace=wrap;rounded=0;" vertex="1" parent="1">
          <mxGeometry x="195" y="1870" width="60" height="30" as="geometry" />
        </mxCell>
        <mxCell id="AsIQZ49urG--46RWY30z-96" style="edgeStyle=orthogonalEdgeStyle;rounded=0;orthogonalLoop=1;jettySize=auto;html=1;entryX=1;entryY=1;entryDx=0;entryDy=0;" edge="1" parent="1" source="AsIQZ49urG--46RWY30z-81" target="AsIQZ49urG--46RWY30z-92">
          <mxGeometry relative="1" as="geometry" />
        </mxCell>
        <mxCell id="AsIQZ49urG--46RWY30z-81" value="Button" style="text;html=1;align=center;verticalAlign=middle;whiteSpace=wrap;rounded=0;" vertex="1" parent="1">
          <mxGeometry x="430" y="1870" width="60" height="30" as="geometry" />
        </mxCell>
        <mxCell id="AsIQZ49urG--46RWY30z-101" style="edgeStyle=orthogonalEdgeStyle;rounded=0;orthogonalLoop=1;jettySize=auto;html=1;entryX=1;entryY=1;entryDx=0;entryDy=0;" edge="1" parent="1" source="AsIQZ49urG--46RWY30z-92" target="AsIQZ49urG--46RWY30z-93">
          <mxGeometry relative="1" as="geometry">
            <Array as="points">
              <mxPoint x="180" y="1865" />
            </Array>
          </mxGeometry>
        </mxCell>
        <mxCell id="AsIQZ49urG--46RWY30z-92" value="" style="whiteSpace=wrap;html=1;aspect=fixed;" vertex="1" parent="1">
          <mxGeometry x="340" y="1840" width="40" height="40" as="geometry" />
        </mxCell>
        <mxCell id="AsIQZ49urG--46RWY30z-102" style="edgeStyle=orthogonalEdgeStyle;rounded=0;orthogonalLoop=1;jettySize=auto;html=1;entryX=0;entryY=0.5;entryDx=0;entryDy=0;" edge="1" parent="1" source="AsIQZ49urG--46RWY30z-93" target="AsIQZ49urG--46RWY30z-59">
          <mxGeometry relative="1" as="geometry">
            <Array as="points">
              <mxPoint x="280" y="1825" />
              <mxPoint x="280" y="1780" />
            </Array>
          </mxGeometry>
        </mxCell>
        <mxCell id="AsIQZ49urG--46RWY30z-93" value="" style="whiteSpace=wrap;html=1;aspect=fixed;" vertex="1" parent="1">
          <mxGeometry x="140" y="1805" width="40" height="40" as="geometry" />
        </mxCell>
        <mxCell id="AsIQZ49urG--46RWY30z-94" value="AND Gate" style="text;html=1;align=center;verticalAlign=middle;whiteSpace=wrap;rounded=0;" vertex="1" parent="1">
          <mxGeometry x="330" y="1820" width="60" height="30" as="geometry" />
        </mxCell>
        <mxCell id="AsIQZ49urG--46RWY30z-99" value="OR Gate" style="text;html=1;align=center;verticalAlign=middle;whiteSpace=wrap;rounded=0;" vertex="1" parent="1">
          <mxGeometry x="130" y="1780" width="60" height="30" as="geometry" />
        </mxCell>
      </root>
    </mxGraphModel>
  </diagram>
</mxfile>
